<svg width="100" height="100" viewBox="0 0 100 100" fill="none" xmlns="http://www.w3.org/2000/svg">
    <circle cx="50" cy="50" r="50" fill="#fffcf2" />
    <path
        d="M55.4687 70.4167H23.7499C22.1399 70.4167 20.8333 69.1101 20.8333 67.5001V64.5834C20.8333 62.9734 22.1399 61.6667 23.7499 61.6667H55.4687"
        stroke="#1E293B" stroke-width="3" stroke-linecap="round" stroke-linejoin="round" />
    <path
        d="M73.3333 29.5833C73.3333 26.3604 70.7229 23.75 67.5 23.75H29.5833C26.3604 23.75 23.75 26.3604 23.75 29.5833V61.6667"
        stroke="#1E293B" stroke-width="3" stroke-linecap="round" stroke-linejoin="round" />
    <path d="M73.3333 38.3333V29.5833" stroke="#1E293B" stroke-width="3" stroke-linecap="round"
        stroke-linejoin="round" />
    <path fill-rule="evenodd" clip-rule="evenodd"
        d="M61.3021 38.3333H73.3333C76.5563 38.3333 79.1667 40.9437 79.1667 44.1666V70.4166C79.1667 73.6395 76.5563 76.2499 73.3333 76.2499H61.3021C58.0792 76.2499 55.4688 73.6395 55.4688 70.4166V44.1666C55.4688 40.9437 58.0792 38.3333 61.3021 38.3333Z"
        stroke="#e0b707" stroke-width="3" stroke-linecap="round" stroke-linejoin="round" />
    <path d="M64.7583 69.6876H69.8625" stroke="#e0b707" stroke-width="3" stroke-linecap="round"
        stroke-linejoin="round" />
</svg>