<svg width="100" height="100" viewBox="0 0 100 100" fill="none" xmlns="http://www.w3.org/2000/svg">
    <circle cx="50" cy="50" r="50" fill="#fdf3cf" />
    <path
        d="M61.1084 35.9738C61.5315 36.3969 61.5315 37.0826 61.1084 37.5056C60.6853 37.9287 59.9996 37.9287 59.5765 37.5056C59.1534 37.0826 59.1534 36.3969 59.5765 35.9738C60.0026 35.5507 60.6853 35.5507 61.1084 35.9738"
        stroke="#1E293B" stroke-width="3" stroke-linecap="round" stroke-linejoin="round" />
    <path
        d="M67.7232 50.8286L71.5427 47.0091C72.6952 45.8536 73.343 44.2955 73.343 42.6673V29.8724C73.343 26.4847 70.5973 23.739 67.2038 23.739H54.4089C52.7836 23.739 51.2225 24.3868 50.0758 25.5364L25.5364 50.0758C23.1409 52.4714 23.1409 56.3551 25.5364 58.7507L38.3313 71.5456C40.7269 73.9412 44.6106 73.9412 47.0062 71.5456L50.8286 67.7232"
        stroke="#1E293B" stroke-width="3" stroke-linecap="round" stroke-linejoin="round" />
    <path d="M68.2368 60.5774L61.8524 66.9617L58.0242 63.1305" stroke="#e0b707" stroke-width="3"
        stroke-linecap="round" stroke-linejoin="round" />
    <path
        d="M63.1305 76.2609C55.8795 76.2609 50 70.3814 50 63.1305C50 56.0284 56.04 49.9942 63.1392 50C70.3872 50.0058 76.2609 55.8825 76.2609 63.1305C76.2609 70.3814 70.3843 76.2609 63.1305 76.2609"
        stroke="#e0b707" stroke-width="3" stroke-linecap="round" stroke-linejoin="round" />
</svg>