<svg width="100" height="100" viewBox="0 0 100 100" fill="none" xmlns="http://www.w3.org/2000/svg">
    <circle cx="50" cy="50" r="50" fill="#fdf3cf" />
    <path d="M59.8303 71.0265L71.0277 59.8291" stroke="#1E293B" stroke-width="3"
        stroke-linecap="round" stroke-linejoin="round" />
    <path d="M28.6255 40.2922L40.2922 28.6255" stroke="#1E293B" stroke-width="3"
        stroke-linecap="round" stroke-linejoin="round" />
    <path
        d="M50.8283 39.1617L37.1252 25.4585C36.0313 24.3646 34.5475 23.75 33.0004 23.75C31.4533 23.75 29.9696 24.3646 28.8756 25.4585L25.4585 28.8756C24.3646 29.9696 23.75 31.4533 23.75 33.0004C23.75 34.5475 24.3646 36.0313 25.4585 37.1252L39.7683 51.435"
        stroke="#1E293B" stroke-width="3" stroke-linecap="round" stroke-linejoin="round" />
    <path
        d="M60.837 49.1704L69.3142 57.6476C70.5949 58.9283 71.5598 60.4896 72.1326 62.2078L76.1727 74.328C76.3474 74.8521 76.211 75.4298 75.8204 75.8204C75.4298 76.211 74.852 76.3474 74.328 76.1727L62.2078 72.1326C60.4895 71.5599 58.9282 70.5949 57.6475 69.3142L48.564 60.2307"
        stroke="#1E293B" stroke-width="3" stroke-linecap="round" stroke-linejoin="round" />
    <path
        d="M34.7734 58.8667C38.8189 52.1716 43.7212 46.0333 49.3561 40.6077C61.1126 28.8513 72.8892 21.5673 75.6602 24.3382C78.4312 27.1092 71.1471 38.886 59.3901 50.6417C53.965 56.2771 47.8269 61.1797 41.1318 65.225"
        stroke="#e0b707" stroke-width="3" stroke-linecap="round" stroke-linejoin="round" />
    <path fill-rule="evenodd" clip-rule="evenodd"
        d="M35.3161 74.1738L27.3769 76.1586C26.3829 76.4071 25.3314 76.1158 24.6069 75.3913C23.8823 74.6668 23.5911 73.6153 23.8396 72.6213L25.8293 64.6626C26.6997 61.1807 29.8317 58.7407 33.4207 58.7483H33.4409C37.7579 58.7574 41.2521 62.2606 41.25 66.5775V66.5775C41.2483 70.1708 38.8021 73.3023 35.3161 74.1738Z"
        stroke="#e0b707" stroke-width="3" stroke-linecap="round" stroke-linejoin="round" />
</svg>