<svg width="100" height="100" viewBox="0 0 100 100" fill="none" xmlns="http://www.w3.org/2000/svg">
    <circle cx="50" cy="50" r="50" fill="#fdf3cf" />
    <path
        d="M43.1885 68.0544V69.455C43.1885 71.2601 43.9055 72.9912 45.1819 74.2676C46.4582 75.5439 48.1893 76.261 49.9944 76.261H49.9999C51.8057 76.2617 53.5378 75.5451 54.8152 74.2687C56.0925 72.9924 56.8106 71.2608 56.8113 69.4551V69.4551V68.0544"
        stroke="#1E293B" stroke-width="3" stroke-linecap="round" stroke-linejoin="round" />
    <path fill-rule="evenodd" clip-rule="evenodd"
        d="M66.4129 43.0701V53.9611L70.1442 57.6896C71.2571 58.8048 71.8827 60.3157 71.884 61.8913V61.8913C71.884 64.993 69.3696 67.5073 66.2679 67.5073H33.7317C30.6301 67.5073 28.1157 64.993 28.1157 61.8913V61.8913C28.117 60.3157 28.7426 58.8048 29.8555 57.6896L33.5868 53.9611V43.0701C33.5868 34.0054 40.9351 26.657 49.9998 26.657V26.657C59.0645 26.657 66.4129 34.0054 66.4129 43.0701Z"
        stroke="#1E293B" stroke-width="3" stroke-linecap="round" stroke-linejoin="round" />
    <path d="M79.2408 23.739L73.405 27.6295" stroke="#e0b707" stroke-width="3"
        stroke-linecap="round" stroke-linejoin="round" />
    <path d="M82.0966 41.2463H76.323" stroke="#e0b707" stroke-width="3" stroke-linecap="round"
        stroke-linejoin="round" />
    <path d="M20.759 23.739L26.5948 27.6295" stroke="#e0b707" stroke-width="3"
        stroke-linecap="round" stroke-linejoin="round" />
    <path d="M17.9033 41.2463H23.6769" stroke="#e0b707" stroke-width="3" stroke-linecap="round"
        stroke-linejoin="round" />
    <path d="M54.9482 46.4773L48.7662 52.6626L45.0518 48.9514" stroke="#e0b707" stroke-width="3"
        stroke-linecap="round" stroke-linejoin="round" />
</svg>