<svg xmlns="http://www.w3.org/2000/svg" width="40" height="40" viewBox="0 0 40 40" fill="none" ml-update="aware"><script xmlns=""/>
    <rect width="40" height="40" fill="#fdcf08"/>
    <circle cx="20" cy="20" r="20" fill="#fdcf08"/>
    <path d="M10 25V15C10 14.4696 10.2107 13.9609 10.5858 13.5858C10.9609 13.2107 11.4696 13 12 13H28C28.5304 13 29.0391 13.2107 29.4142 13.5858C29.7893 13.9609 30 14.4696 30 15V25C30 25.5304 29.7893 26.0391 29.4142 26.4142C29.0391 26.7893 28.5304 27 28 27H12C11.4696 27 10.9609 26.7893 10.5858 26.4142C10.2107 26.0391 10 25.5304 10 25Z" fill="white" stroke="black" stroke-width="1.5"/>
    <path d="M15 18L20 21.5L25 18" stroke="#fdcf08" stroke-width="1.5" stroke-linecap="round" stroke-linejoin="round"/>
    <script xmlns=""/></svg>