<svg xmlns="http://www.w3.org/2000/svg" width="229" height="237" viewBox="0 0 229 237" fill="none" ml-update="aware"><script xmlns=""/>
    <path d="M169.617 223.775L163.711 222.329L165.475 208.265L171.388 209.71L169.617 223.775V223.775Z" fill="#FFB573"/>
    <path d="M221.086 230.201H215.002L210.27 216.113H216.346L221.086 230.201V230.201Z" fill="#FFB573"/>
    <path d="M214.195 229.494H221.608C221.856 229.494 222.071 229.664 222.129 229.905L223.333 235.345C223.39 235.612 223.322 235.891 223.148 236.101C222.974 236.312 222.713 236.431 222.44 236.425C220.054 236.386 218.314 236.246 215.306 236.246C213.457 236.246 207.886 236.44 205.329 236.44C202.773 236.44 202.446 233.915 203.488 233.682C208.15 232.664 211.709 231.25 213.208 229.898C213.476 229.645 213.828 229.501 214.195 229.494V229.494Z" fill="#263238"/>
    <path d="M163.958 221.661L170.407 223.215C170.648 223.276 170.816 223.495 170.812 223.743L170.695 229.284C170.692 229.555 170.564 229.809 170.349 229.973C170.133 230.137 169.853 230.193 169.592 230.123C167.26 229.517 163.942 228.569 161.044 227.846C157.625 227.007 154.626 226.471 150.616 225.515C148.192 224.925 148.114 222.306 149.186 222.337C154.051 222.454 157.858 223.269 162.45 221.778C162.933 221.601 163.454 221.561 163.958 221.661Z" fill="#263238"/>
    <path d="M193.399 47.3533C192.98 48.6121 192.575 49.6845 192.117 50.8423C191.659 52.0001 191.2 53.088 190.711 54.1991C189.739 56.4215 188.659 58.5972 187.478 60.7574C186.282 62.9418 184.959 65.0539 183.515 67.0826C182.005 69.2323 180.271 71.2146 178.34 72.996C177.819 73.4544 177.299 73.9129 176.716 74.3402C176.405 74.5656 176.18 74.7521 175.799 74.993C175.438 75.2356 175.065 75.4587 174.68 75.6612C173.067 76.5191 171.262 76.9548 169.435 76.9278C167.758 76.8913 166.106 76.516 164.578 75.8244C163.26 75.2234 162.018 74.4669 160.88 73.571C158.86 71.9408 157.058 70.0579 155.518 67.9684C154.741 66.9738 154.088 65.9326 153.436 64.8602C152.773 63.8059 152.169 62.7165 151.625 61.5966L155.51 59.1878C156.179 59.9648 156.948 60.8351 157.694 61.6277C158.44 62.4203 159.248 63.1818 160.025 63.9589C161.516 65.3909 163.161 66.6547 164.928 67.7276C166.568 68.6989 168.238 69.1806 169.272 69.0175C169.775 68.9412 170.254 68.7497 170.67 68.458C170.793 68.3774 170.909 68.2892 171.02 68.1938C171.121 68.1161 171.339 67.9218 171.486 67.7897C171.843 67.4877 172.183 67.166 172.504 66.8262C175.146 64.0599 177.423 60.2912 179.405 56.4215C180.407 54.4711 181.332 52.4585 182.233 50.4382C182.676 49.4203 183.111 48.3946 183.523 47.3689C183.935 46.3432 184.354 45.2708 184.704 44.3384L193.399 47.3533Z" fill="#FFB573"/>
    <path d="M195.872 44.3616C197.169 50.0263 184.744 64.526 184.744 64.526L173.57 56.3514C176.043 51.6427 179.016 47.2139 182.436 43.1416C187.557 37.3992 194.434 38.1452 195.872 44.3616Z" fill="#fdcf08"/>
    <path opacity="0.2" d="M183.386 53.865C182.182 56.2569 181.143 58.7285 180.277 61.2625L184.745 64.5261C184.745 64.5261 192.127 55.9242 194.909 49.3736C191.552 46.4908 186.307 48.1304 183.386 53.865Z" fill="black"/>
    <path d="M156.111 60.0503L153.275 56.2505L148.465 61.9229C148.465 61.9229 151.379 64.8447 154.984 63.7024L156.111 60.0503Z" fill="#FFB573"/>
    <path d="M146.941 54.1602L145.348 60.6718L148.464 61.9229L153.274 56.2504L146.941 54.1602V54.1602Z" fill="#FFB573"/>
    <path opacity="0.2" d="M165.472 208.265L164.562 215.522L170.476 216.96L171.385 209.71L165.472 208.265V208.265Z" fill="black"/>
    <path opacity="0.2" d="M216.354 216.113H210.27L212.709 223.378H218.794L216.354 216.113V216.113Z" fill="black"/>
    <path d="M223.082 43.5146C220.878 49.9511 219.159 56.5433 217.938 63.2361C217.06 67.8984 216.384 72.3664 215.949 76.4459C214.83 85.957 214.573 93.2457 214.13 95.6934L181.89 91.3497C179.707 56.5379 189.272 39.2874 189.272 39.2874C191.863 38.9708 194.472 38.8177 197.082 38.829C197.633 38.829 198.193 38.829 198.76 38.8678C203.361 39.2181 207.937 39.833 212.467 40.7094C213.33 40.8726 214.2 41.0513 215.039 41.2456C219.329 42.2169 223.082 43.5146 223.082 43.5146Z" fill="#fdcf08"/>
    <path opacity="0.2" d="M217.938 63.2361C217.06 67.8984 216.384 72.3664 215.949 76.4459L211.59 66.3598L217.938 63.2361Z" fill="black"/>
    <path d="M213.193 25.083C211.732 29.3723 209.782 37.3371 212.471 40.6939C209.344 43.2057 205.281 44.2351 201.335 43.5146C197.551 42.9241 197.722 40.2432 198.763 38.8912C203.838 38.3783 204.203 34.7106 203.814 31.1673L213.193 25.083Z" fill="#FFB573"/>
    <path opacity="0.2" d="M209.368 27.554L203.812 31.1284C203.917 31.9529 203.948 32.785 203.906 33.6149C205.825 33.6149 208.685 31.8821 209.143 29.9473C209.36 29.1692 209.436 28.3588 209.368 27.554Z" fill="black"/>
    <path d="M202.034 7.84799C197.325 7.46723 195.693 18.8122 198.63 20.9879C201.567 23.1636 210.853 8.54733 202.034 7.84799Z" fill="#263238"/>
    <path d="M214.614 18.517C213.441 24.4381 213.06 27.9659 209.626 30.6234C204.466 34.6174 197.465 30.8954 196.843 24.7411C196.284 19.2008 198.296 10.4512 204.458 8.85824C207.22 8.1319 210.161 8.88766 212.23 10.8555C214.299 12.8233 215.201 15.7225 214.614 18.517Z" fill="#FFB573"/>
    <path d="M213.403 24.3138C210.489 26.1321 208.026 7.94913 215.773 10.3269C228.353 14.2199 216.876 22.1536 213.403 24.3138Z" fill="#263238"/>
    <path d="M213.417 13.6993C211.653 11.5235 200.929 12.8367 195.987 9.59644C191.045 6.35615 194.177 -0.769394 203.222 0.380638C199.01 0.870179 199.779 4.38244 202.67 4.35136C205.561 4.32028 212.212 0.738081 215.103 3.79188C219.136 8.03457 221.156 5.51693 223.168 7.92579C226.121 11.3914 217.24 18.4315 213.417 13.6993Z" fill="#263238"/>
    <path d="M216.415 25.4637C215.441 26.6295 214.043 27.3594 212.53 27.4918C210.525 27.6628 209.896 25.7745 210.774 24.0806C211.551 22.5265 213.555 20.6305 215.436 21.2599C217.316 21.8893 217.573 24.0184 216.415 25.4637Z" fill="#FFB573"/>
    <path d="M162.685 213.611L172.693 216.02C172.693 216.02 179.142 181.931 182.134 163.18C183.043 157.485 185.071 149.605 187.527 141.19C190.635 130.591 194.388 119.153 197.442 110.209C200.667 100.783 203.083 94.1162 203.083 94.1162L181.893 91.2644C181.893 91.2644 165.746 140.832 163.959 159.295C162.032 178.511 162.685 213.611 162.685 213.611Z" fill="#263238"/>
    <path opacity="0.2" d="M187.525 141.252C190.633 130.653 194.387 119.215 197.44 110.271L195.537 105.368C189.849 111.304 187.183 130.637 187.525 141.252Z" fill="black"/>
    <path d="M193.324 92.865C193.324 92.865 192.275 144.982 193.705 162.745C195.259 182.171 209.852 221.972 209.852 221.972H220.995C220.995 221.972 213.559 185.567 211.282 166.677C208.686 145.153 214.126 95.6701 214.126 95.6701L193.324 92.865Z" fill="#263238"/>
    <path d="M208.523 222.213H221.639V218.296L206.977 218.04L208.523 222.213V222.213Z" fill="#fdcf08"/>
    <path d="M161.369 213.541L173.289 216.455L174.229 212.6L160.957 209.143L161.369 213.541V213.541Z" fill="#fdcf08"/>
    <path d="M205.328 18.9675C205.265 19.4493 204.955 19.8068 204.636 19.7446C204.317 19.6824 204.108 19.2706 204.178 18.7888C204.247 18.3071 204.551 17.9418 204.869 18.0118C205.188 18.0817 205.39 18.478 205.328 18.9675Z" fill="#263238"/>
    <path d="M199.836 18.2218C199.766 18.7113 199.455 19.0688 199.136 18.9989C198.818 18.9289 198.616 18.5249 198.686 18.0353C198.756 17.5458 199.059 17.1883 199.377 17.2583C199.696 17.3282 199.898 17.74 199.836 18.2218Z" fill="#263238"/>
    <path d="M201.543 18.7034C200.767 20.1258 199.797 21.4334 198.66 22.5886C199.264 23.1704 200.095 23.4549 200.929 23.3657L201.543 18.7034Z" fill="#ED893E"/>
    <path d="M202.81 24.8656C202.597 24.8649 202.384 24.8494 202.173 24.819C202.135 24.8152 202.099 24.7955 202.075 24.7645C202.052 24.7335 202.042 24.6941 202.049 24.6558C202.055 24.6184 202.075 24.585 202.106 24.563C202.137 24.5411 202.175 24.5325 202.212 24.5392C203.436 24.7298 204.677 24.3257 205.553 23.4513C205.61 23.3981 205.699 23.3981 205.755 23.4513C205.783 23.4777 205.799 23.5142 205.799 23.5524C205.799 23.5905 205.783 23.627 205.755 23.6534C204.981 24.4436 203.917 24.8817 202.81 24.8656V24.8656Z" fill="#263238"/>
    <path d="M207.262 17.4214C207.158 17.4221 207.062 17.3653 207.013 17.2737C206.667 16.6268 206.037 16.1806 205.311 16.0693C205.235 16.0653 205.164 16.0311 205.113 15.9742C205.062 15.9173 205.035 15.8425 205.04 15.7662C205.052 15.6093 205.185 15.4896 205.343 15.4943C206.263 15.6135 207.07 16.1688 207.511 16.9862C207.549 17.053 207.56 17.1327 207.539 17.2072C207.519 17.2818 207.469 17.345 207.402 17.3825C207.359 17.406 207.311 17.4193 207.262 17.4214V17.4214Z" fill="#263238"/>
    <path d="M197.719 16.0148C197.661 16.0139 197.605 15.9978 197.556 15.9682C197.425 15.8767 197.39 15.6976 197.478 15.5641C197.976 14.781 198.821 14.2862 199.747 14.2354C199.906 14.2354 200.035 14.3641 200.035 14.5229C200.035 14.6816 199.906 14.8104 199.747 14.8104C199.012 14.853 198.344 15.2537 197.96 15.8827C197.907 15.9647 197.817 16.0145 197.719 16.0148V16.0148Z" fill="#263238"/>
    <path fill-rule="evenodd" clip-rule="evenodd" d="M211.01 230.247C211.355 230.479 211.769 230.589 212.184 230.558C212.722 230.54 213.256 230.462 213.777 230.325C213.832 230.311 213.875 230.265 213.885 230.208C213.896 230.149 213.868 230.09 213.815 230.061C213.598 229.921 211.632 228.716 210.964 229.058C210.81 229.138 210.713 229.297 210.715 229.47C210.675 229.763 210.786 230.055 211.01 230.247ZM211.096 229.299C211.157 229.286 211.221 229.286 211.282 229.299C212.019 229.429 212.724 229.701 213.357 230.1C212.649 230.341 211.876 230.302 211.197 229.991C211.046 229.863 210.972 229.666 211.002 229.47C210.999 229.4 211.035 229.334 211.096 229.299Z" fill="#0D9488"/>
    <path fill-rule="evenodd" clip-rule="evenodd" d="M213.673 230.341H213.742C213.766 230.353 213.793 230.358 213.82 230.356C213.863 230.326 213.886 230.276 213.882 230.224C213.882 230.222 213.882 230.218 213.881 230.212C213.866 230.041 213.713 228.38 213.028 227.815C212.857 227.672 212.635 227.604 212.414 227.629C212.189 227.629 211.996 227.789 211.955 228.009C211.823 228.662 213.043 229.999 213.673 230.341ZM212.445 227.877H212.515C212.635 227.877 212.751 227.921 212.841 228.002C213.269 228.548 213.521 229.212 213.564 229.905C212.934 229.431 212.157 228.429 212.235 228.025C212.235 228.024 212.235 228.023 212.236 228.021C212.244 227.98 212.264 227.877 212.445 227.877Z" fill="#0D9488"/>
    <path fill-rule="evenodd" clip-rule="evenodd" d="M159.873 221.373C160.385 222.112 162.134 222.29 163.136 222.329C163.187 222.323 163.231 222.291 163.253 222.244C163.269 222.186 163.254 222.124 163.214 222.08C162.996 221.871 160.922 220.083 160.106 220.317C159.949 220.359 159.825 220.479 159.779 220.635C159.69 220.882 159.725 221.157 159.873 221.373ZM160.16 220.581H160.222C160.704 220.542 161.87 221.342 162.701 221.972C161.341 221.902 160.385 221.606 160.098 221.195C159.999 221.051 159.976 220.869 160.036 220.705C160.051 220.644 160.099 220.596 160.16 220.581Z" fill="#0D9488"/>
    <path fill-rule="evenodd" clip-rule="evenodd" d="M163.032 222.329C163.065 222.341 163.101 222.341 163.133 222.329L163.172 222.345C163.22 222.327 163.255 222.286 163.266 222.236C163.266 222.234 163.266 222.229 163.267 222.223C163.289 222.049 163.485 220.483 162.9 219.734C162.735 219.495 162.474 219.34 162.185 219.307C161.789 219.252 161.634 219.415 161.564 219.571C161.3 220.208 162.395 221.832 163.032 222.329ZM161.836 219.656C161.844 219.633 161.867 219.563 161.991 219.563H162.147C162.359 219.592 162.55 219.707 162.675 219.882C162.985 220.504 163.101 221.205 163.009 221.894C162.387 221.28 161.673 220.045 161.836 219.656Z" fill="#0D9488"/>
    <path d="M226.448 50.5936C226.347 51.7436 226.238 52.7304 226.09 53.7795C225.943 54.8285 225.787 55.8464 225.616 56.8877C225.267 58.9468 224.839 60.9905 224.342 63.0263C223.845 65.0622 223.277 67.0981 222.586 69.1184C221.912 71.1752 221.112 73.189 220.193 75.1483L219.47 76.6325L219.423 76.7257L219.322 76.9122L219.112 77.2852C218.963 77.5274 218.799 77.7609 218.623 77.9845C218.287 78.412 217.907 78.8027 217.488 79.1501C216.776 79.7356 215.973 80.2002 215.111 80.5255C214.41 80.7861 213.687 80.9838 212.95 81.116C210.585 81.4631 208.18 81.4316 205.825 81.0228C201.639 80.3294 197.555 79.1237 193.664 77.4328L194.962 73.0425C196.85 73.2912 198.847 73.5398 200.743 73.6952C202.639 73.8506 204.566 73.9905 206.392 73.975C208.026 74.0187 209.658 73.8357 211.241 73.431C211.847 73.2523 212.228 72.9415 212.127 72.9493C212.086 72.961 212.049 72.9823 212.018 73.0114L211.948 73.0891L211.909 73.1358V73.1358V73.0581L212.399 71.7992C213.666 68.2751 214.661 64.659 215.375 60.9827C215.779 59.11 216.097 57.214 216.424 55.3258C216.584 54.3778 216.732 53.4298 216.867 52.4818L217.248 49.7L226.448 50.5936Z" fill="#FFB573"/>
    <path d="M227.567 46.9646C230.963 51.6813 227.039 66.2199 227.039 66.2199L211.078 66.7328C211.078 66.7328 212.376 57.1518 214.738 50.0107C217.302 42.2402 223.441 41.2533 227.567 46.9646Z" fill="#fdcf08"/>
    <path d="M195.708 73.2213L190.105 70.626V78.3965C190.105 78.3965 195.366 79.5543 196.283 76.8424L195.708 73.2213Z" fill="#FFB573"/>
    <path d="M185.148 71.7449L185.428 78.1711L190.075 78.3887L190.106 70.626L185.148 71.7449V71.7449Z" fill="#FFB573"/>
    
    <mask id="mask0_0_17229" style="mask-type:alpha" maskUnits="userSpaceOnUse" x="189" y="49" width="10" height="17">
    <path fill-rule="evenodd" clip-rule="evenodd" d="M195.448 64.2514C194.465 65.3577 193.13 65.9376 192.072 65.7029C191.241 65.5188 190.792 64.8807 190.771 64.8466C190.442 64.3159 190.383 63.7038 190.351 63.3674C190.335 63.2058 190.326 63.1079 190.296 63.1132C190.262 63.1191 190.245 63.244 190.227 63.3717C190.208 63.5047 190.189 63.6408 190.151 63.6491C190.041 63.6735 189.74 62.6108 189.793 61.3485C189.83 60.4825 190.022 59.7367 190.221 58.9779C190.56 57.6873 190.961 56.7288 191.296 55.9705C191.353 55.842 191.777 54.8979 192.265 54.0272C193.394 52.0127 195.383 49.4783 196.84 49.0782C197.321 48.9461 197.926 48.9959 198.234 49.12C198.375 49.1765 198.454 49.2488 198.501 49.3321C198.572 49.4573 198.578 49.6232 198.519 49.8301C198.424 50.1653 197.87 51.0274 197.271 51.9586C197.223 52.0337 197.174 52.1092 197.125 52.1849C197.022 52.3459 196.927 52.4929 196.84 52.629C196.117 53.7521 195.875 54.1279 195.158 55.469C194.356 56.9728 193.716 58.3448 193.241 59.5835C192.765 60.8229 192.49 61.8326 192.417 62.6119C192.384 62.9722 192.499 63.6472 192.944 63.7815C193.386 63.9147 194.115 63.4777 194.723 62.6527L195.448 64.2514Z" fill="white"/>
    </mask>
    <g mask="url(#mask0_0_17229)">
    </g>
    
    <mask id="mask1_0_17229" style="mask-type:alpha" maskUnits="userSpaceOnUse" x="194" y="54" width="11" height="12">
    <path fill-rule="evenodd" clip-rule="evenodd" d="M202.989 60.5207C203.002 60.5341 203.015 60.5471 203.028 60.5597C202.518 61.2427 202.033 61.7736 201.656 62.155C201.239 62.5756 200.885 62.9296 200.339 63.3037L200.339 63.3037C199.729 63.7216 199.167 64.106 198.472 64.103C198.306 64.1024 197.812 64.0941 197.421 63.7421C197.116 63.4674 197.027 63.127 196.998 62.9694C197.508 62.574 198.205 61.9736 198.911 61.1447C199.485 60.4717 200.548 59.1994 200.971 57.4765C201.269 56.2599 201.052 55.5966 200.895 55.2626C200.612 54.6641 200.018 54.3647 199.113 54.3647C198.376 54.3647 197.685 54.6506 197.038 55.2208C196.39 55.7921 195.848 56.5022 195.409 57.3513C194.97 58.201 194.669 59.1127 194.506 60.0873C194.351 61.0215 194.391 61.8657 194.63 62.6202L194.631 62.6207L195.364 64.3513L195.367 64.3478C195.491 64.5998 195.766 65.0524 196.322 65.3833C196.95 65.7577 197.585 65.7674 197.847 65.7683C198.462 65.7699 198.938 65.6096 199.385 65.4548C200.175 65.1817 200.73 64.8247 201.173 64.5359C201.793 64.1326 202.407 63.6311 203.016 63.032C203.626 62.4336 204.193 61.7445 204.72 60.9644C204.741 60.9611 204.761 60.9576 204.782 60.954L202.989 60.5207ZM196.763 59.5441C196.842 59.0708 196.962 58.646 197.124 58.2702C197.286 57.8941 197.477 57.5953 197.699 57.3721C197.92 57.1497 198.143 57.0381 198.37 57.0381C198.596 57.0381 198.694 57.1704 198.665 57.4346C198.635 57.6997 198.522 58.034 198.328 58.4372C198.133 58.8413 197.884 59.2727 197.581 59.7322C197.277 60.1916 196.981 60.6165 196.689 61.0061C196.659 60.5049 196.684 60.018 196.763 59.5441Z" fill="white"/>
    </mask>
    <g mask="url(#mask1_0_17229)">
    </g>
    
    
    <path d="M163.585 122.719H15.0754C11.0647 122.65 7.75572 119.559 7.41373 115.563L0.777735 20.8558C0.619812 19.0019 1.2521 17.1675 2.51879 15.8046C3.78548 14.4418 5.56878 13.6771 7.42928 13.6992H155.908C159.917 13.7718 163.224 16.8608 163.57 20.8558L170.237 115.563C170.395 117.416 169.762 119.251 168.496 120.614C167.229 121.977 165.446 122.741 163.585 122.719V122.719Z" fill="#263238"/>
    <path d="M206.067 200.012H38.729C34.292 200.012 29.8162 197.145 28.7983 193.672L9.41869 127.809C8.58725 124.996 11.1437 122.719 15.0756 122.719H163.585C167.525 122.719 172.024 124.996 173.601 127.809L210.581 193.672C212.524 197.145 210.503 200.012 206.067 200.012Z" fill="#263238"/>
    <path d="M165.373 122.719H16.8714C12.8592 122.654 9.54822 119.561 9.20971 115.563L2.53485 20.856C2.3794 19.0026 3.01252 17.1697 4.27868 15.8074C5.54483 14.4451 7.32666 13.6797 9.18639 13.6993H157.696C161.707 13.7684 165.016 16.8592 165.358 20.856L172.033 115.563C172.188 117.417 171.554 119.252 170.286 120.614C169.018 121.977 167.234 122.741 165.373 122.719Z" fill="#fdcf08"/>
    <path d="M18.0829 116.759C16.4997 116.726 15.1946 115.508 15.0524 113.931L8.6107 22.4876C8.5493 21.7563 8.79946 21.0331 9.29957 20.496C9.79969 19.9589 10.5033 19.6578 11.2371 19.667H156.483C158.061 19.7036 159.36 20.9165 159.506 22.4876L165.948 113.931C166.009 114.663 165.759 115.387 165.259 115.925C164.759 116.463 164.056 116.766 163.321 116.759H18.0829Z" fill="white"/>
    <ellipse opacity="0.2" cx="83.6627" cy="16.8566" rx="1.06456" ry="1.14226" transform="rotate(-45.99 83.6627 16.8566)" fill="black"/>
    <path d="M207.861 200.012H40.5158C36.0788 200.012 31.6108 197.145 30.5851 193.672L11.2055 127.809C10.3818 124.996 12.9305 122.719 16.8702 122.719H165.372C169.312 122.719 173.811 124.996 175.388 127.809L212.36 193.672C214.311 197.145 212.298 200.012 207.861 200.012Z" fill="#fdcf08"/>
    <path opacity="0.2" d="M31.5034 164.835C29.8405 164.835 28.1698 163.81 27.7891 162.566L17.5786 128.99C17.2367 127.879 18.2391 126.97 19.8088 126.97H166.057C167.626 126.968 169.1 127.72 170.02 128.99L188.553 162.582C189.237 163.825 188.444 164.851 186.781 164.851L31.5034 164.835Z" fill="black"/>
    <path opacity="0.2" d="M98.5006 194.153C97.4917 194.156 96.5645 193.599 96.0917 192.708L87.5442 170.826C87.2567 170.088 87.8161 169.482 88.7952 169.482H133.476C134.455 169.481 135.365 169.991 135.877 170.826L146.033 192.708C146.406 193.485 145.877 194.153 144.867 194.153H98.5006Z" fill="black"/>
    <path fill-rule="evenodd" clip-rule="evenodd" d="M17.9738 96.0198L14.3062 103.293L14.2751 102.858L17.764 95.9499L13.3038 89.0886L13.2649 88.5835L17.9661 95.8411H30.0336L32.6834 90.596L35.3253 85.3587L31.9141 80.1059L28.5028 74.8608H16.3964L13.7467 80.0981L12.7598 82.0563V81.5823L13.5369 79.9815L16.1866 74.7442L12.7754 69.4992L11.773 67.9451V67.4477L13.0163 69.3593L16.4275 74.6044H28.464L31.1137 69.3671L33.7557 64.122L30.3444 58.8769L26.9332 53.624H14.8268L12.177 58.8691L11.229 60.7496V60.2756L12.0061 58.7215L14.6558 53.4764L11.2446 48.2313L10.2888 46.7627V46.2576L11.4855 48.0992L14.8889 53.3521H26.9721L29.6218 48.107L32.2638 42.8697L28.8525 37.6168L25.449 32.3717H13.3348L9.77596 39.4196L9.7371 38.9456L13.1173 32.2552L8.79688 25.6114V25.1063L13.3582 32.0998H25.5034L28.1532 26.8625L30.8029 21.6174L29.5285 19.667H29.785L30.9661 21.4853H43.0803L44.005 19.667H44.2769L43.2979 21.6018L46.7091 26.8547L50.1203 32.0998H62.2345L64.8765 26.8625L67.5263 21.6174L66.2519 19.667H66.5472L67.7283 21.4853H79.8192L80.7439 19.667H81.0158L80.0367 21.6018L83.4713 26.8547L86.8825 32.0998H99.0356L101.678 26.8625L104.327 21.6174L103.061 19.667H103.348L104.498 21.4853H116.605L117.529 19.667H117.801L116.822 21.6018L120.233 26.8547L123.645 32.0998H135.759L138.401 26.8625L141.051 21.6174L139.784 19.667H140.072L141.26 21.4853H153.344L154.26 19.667H154.532L153.553 21.6018L156.965 26.8547L160.189 31.7346V32.2396L156.794 27.0023L153.382 21.7573H141.268L138.626 26.9713L135.984 32.2163L139.388 37.4847L142.799 42.7376H154.905L160.283 32.2552V32.7292L155.177 42.8308L161.705 52.8625V53.3676L154.944 42.9629H142.83L140.18 48.2002L137.538 53.4453L140.926 58.6904L144.338 63.9433H156.483L161.736 53.5463V54.0203L156.669 64.052L163.142 74.0216L163.181 74.5267L156.452 64.1686H144.345L141.696 69.4137L139.046 74.651L142.457 79.9038L145.868 85.1489H158.014L163.228 74.8219V75.3037L158.2 85.2655L164.626 95.1573L164.665 95.6624L157.99 85.3976H145.876L143.234 90.6349L140.584 95.88L143.996 101.125L147.407 106.378H159.568L162.217 101.133L164.743 96.1286V96.6026L162.412 101.265L159.77 106.502L163.181 111.755L165.582 115.5L165.427 115.71L162.94 111.887L159.529 106.634H147.391L144.749 111.879L142.286 116.759H142.006L144.532 111.763L147.213 106.533L143.801 101.288L140.39 96.0354H128.276L125.626 101.28L122.984 106.518L126.396 111.771L129.644 116.775H129.348L126.186 111.903L122.774 106.65H110.652L108.011 111.895L105.578 116.759H105.306L107.832 111.763L110.474 106.518L107.063 101.273L103.651 96.0198H91.5448L88.8951 101.265L86.2531 106.502L89.6022 111.755L92.8503 116.759H92.555L89.3924 111.887L85.9812 106.634H73.867L71.225 111.879L68.754 116.759H68.482L71.0074 111.763L73.6494 106.518L70.2382 101.273L66.8269 96.0198H54.7283L52.0785 101.265L49.4288 106.502L52.84 111.755L56.1114 116.759H55.8161L52.6535 111.887L49.2423 106.634H37.1281L34.4783 111.879L32.0151 116.759H31.7431L34.2608 111.763L36.9105 106.518L33.4993 101.273L30.088 96.0198H17.9738ZM54.7283 95.779H66.8269L69.4611 90.5339L72.1031 85.2966L68.6918 80.0437L65.2806 74.7986H53.1742L50.5244 80.0359L47.8825 85.281L51.2859 90.5261L54.7283 95.779ZM119.666 63.9199H107.568L104.125 58.6904L100.714 53.4453L103.364 48.2002L106.013 42.9629H118.12L121.531 48.208L124.942 53.4531L122.3 58.6982L119.666 63.9199ZM123.077 69.4137L119.666 64.1608L107.56 64.1841L104.918 69.4292L102.268 74.6665L105.679 79.9194L109.106 85.1645H121.22L123.847 79.8961L126.489 74.6588L123.077 69.4137ZM103.931 58.7992L107.342 64.0443L104.693 69.2894L102.043 74.5267H89.9597L86.5484 69.2816L83.1449 64.052L85.7869 58.8147L88.4366 53.5696H100.551L103.931 58.7992ZM87.1001 79.9194L89.7499 74.6821L86.3386 69.437L82.9274 64.1841H70.8132L68.1712 69.4292L65.5215 74.6665L68.9327 79.9194L72.344 85.1645H84.4582L87.1001 79.9194ZM85.5693 58.6982L82.9196 63.9433H70.8054L67.3942 58.6904L63.9829 53.4453L66.6326 48.2002L69.2746 42.9629H81.3888L84.8001 48.208L88.2113 53.4531L85.5693 58.6982ZM70.5956 64.0676L67.1921 58.8225L63.7809 53.5696H51.6667L49.0169 58.8147L46.375 64.052L49.7862 69.3049L53.1975 74.55H65.2728L67.9536 69.3127L70.5956 64.0676ZM88.6387 101.148L85.9967 106.393H73.8825L70.4713 101.141L67.06 95.8955L69.7098 90.6504L72.3517 85.4131H84.4659L87.8772 90.6582L91.2884 95.9111L88.6387 101.148ZM91.4982 95.779H103.605L106.278 90.5339L108.92 85.2966L105.516 80.0437L102.105 74.7986H89.9907L87.341 80.0359L84.699 85.281L88.087 90.5261L91.4982 95.779ZM125.362 101.148L122.72 106.393H110.645L107.233 101.141L103.822 95.8955L106.472 90.6504L109.114 85.4131H121.22L124.632 90.6582L128.043 95.9111L125.362 101.148ZM145.666 85.2888L142.255 80.0359L138.844 74.7909H126.73L124.08 80.0282L121.438 85.2733L124.849 90.5183L128.26 95.7712H140.367L143.017 90.5261L145.666 85.2888ZM140.701 58.8147L144.112 64.0598L141.462 69.3049L138.821 74.5422H126.722L123.311 69.2971L119.899 64.0443L122.549 58.807L125.191 53.5619H137.305L140.701 58.8147ZM135.72 32.3407H123.606L121.011 37.578L118.361 42.8231L121.772 48.0681L125.183 53.321H137.251L139.893 48.0759L142.543 42.8386L139.131 37.5857L135.72 32.3407ZM101.849 26.9635L104.498 21.7262H116.612L120.016 26.9713L123.427 32.2241L120.785 37.4614L118.112 42.7376H106.029L102.626 37.4847L99.2143 32.2396L101.849 26.9635ZM98.9967 32.3407H86.8825L84.2328 37.5857L81.5908 42.8308L85.0099 48.0681L88.4211 53.321H100.528L103.169 48.0759L105.819 42.8386L102.408 37.5857L98.9967 32.3407ZM65.1252 26.9635L67.7749 21.7262H79.8813L83.2926 26.9713L86.7038 32.2241L84.0619 37.4614L81.381 42.7376H69.2668L65.8556 37.4847L62.4444 32.2396L65.1252 26.9635ZM62.2423 32.3407H50.1592L47.4784 37.578L44.8364 42.8231L48.2477 48.0681L51.6589 53.321H63.7653L66.4151 48.0759L69.0648 42.8386L65.6536 37.5857L62.2423 32.3407ZM29.1245 37.4536L25.7132 32.2086L28.363 26.9635L31.0049 21.7262H43.1191L46.5304 26.9713L49.9416 32.2241L47.2919 37.4614L44.6499 42.7065H32.5046L29.1245 37.4536ZM27.1974 53.4453L30.6786 58.6826L34.0432 63.9433H46.1341L48.7761 58.6982L51.4258 53.4531L48.0145 48.208L44.6033 42.9629H32.4891L29.8471 48.2002L27.1974 53.4453ZM32.2327 79.9116L28.7515 74.6665L31.4012 69.4292L34.0432 64.1841H46.1574L49.5686 69.437L52.9799 74.6821L50.3302 79.9194L47.6882 85.1645H35.5818L32.2327 79.9116ZM35.6595 85.4053L33.0097 90.6427L30.3056 95.8955L33.7091 101.133L37.1203 106.386H49.3044L51.9464 101.141L54.5962 95.9033L51.1849 90.6504L47.7737 85.4053H35.6595Z" fill="#E0E0E0"/>
    <path d="M19.3502 116.759L14.7578 109.696L14.7889 110.201L19.0549 116.759H19.3502V116.759Z" fill="#E0E0E0"/>
    <path d="M118.234 107.116H64.4938C62.2539 107.085 60.4123 105.341 60.2588 103.106L58.1997 66.1345C58.1304 65.0906 58.4992 64.0651 59.2172 63.3043C59.9353 62.5435 60.9378 62.1161 61.9839 62.1249H115.74C117.978 62.1563 119.818 63.9009 119.967 66.1345L121.995 103.106C122.064 104.146 121.699 105.168 120.986 105.928C120.273 106.688 119.277 107.118 118.234 107.116Z" fill="#fdcf08"/>
    <path opacity="0.2" d="M61.9761 62.1637C60.93 62.1549 59.9275 62.5823 59.2094 63.3431C58.4913 64.1039 58.1226 65.1294 58.1918 66.1733L60.251 103.145C60.4045 105.38 62.2461 107.124 64.4859 107.155H91.3563L88.8542 62.1637H61.9761Z" fill="black"/>
    <path opacity="0.2" d="M85.9025 96.5094L86.5241 84.7605C84.6293 83.5733 83.4163 81.5517 83.2605 79.3211C83.1428 77.6087 83.7483 75.9254 84.9299 74.6804C86.1114 73.4354 87.7607 72.7426 89.4769 72.7706C93.1054 72.8216 96.0921 75.6395 96.3538 79.259C96.4906 81.4123 95.484 83.4787 93.7041 84.6983L95.6234 96.4473L85.9025 96.5094Z" fill="black"/>
    <path d="M95.3432 79.259C95.1403 76.1712 92.594 73.7604 89.4998 73.7264C88.0549 73.7099 86.669 74.2983 85.6772 75.3491C84.6854 76.3999 84.1781 77.8175 84.278 79.259C84.4158 81.3704 85.6726 83.2468 87.5727 84.1777L86.9822 95.4605H94.4418L92.6002 84.1777C94.4062 83.2242 95.4812 81.2966 95.3432 79.259V79.259Z" fill="#263238"/>
    <path d="M114.343 59.4753H107.233L106.797 51.7592C106.106 41.4321 97.5962 33.3691 87.2469 33.2343C82.4108 33.1866 77.774 35.1585 74.4537 38.675C71.1333 42.1915 69.4305 46.9337 69.7555 51.7592L70.1829 59.4753H63.0729L62.6455 51.7592C62.1901 45.0795 64.5444 38.513 69.1401 33.6443C73.7359 28.7756 80.1558 26.0469 86.8506 26.1165C100.985 26.1165 113.123 37.6169 113.915 51.7592L114.343 59.4753Z" fill="#fdcf08"/>
    <script xmlns=""/></svg>